<svg width="24" height="24" viewBox="0 0 24 24" fill="none" xmlns="http://www.w3.org/2000/svg">
<path d="M12.4795 0.279999C6.81386 0.278246 1.98802 4.56813 1.09886 10.3968C0.209704 16.2254 3.52122 21.8622 8.90833 23.69H9.18673C9.46149 23.7078 9.73034 23.6018 9.925 23.399C10.1197 23.1963 10.2214 22.9162 10.2043 22.63V22.42C10.2043 22.25 10.2043 22.02 10.2043 21.33C10.1853 21.1977 10.1161 21.0788 10.0123 21C9.89939 20.9048 9.75114 20.8681 9.60913 20.9C7.03633 21.48 6.48913 19.8 6.45073 19.69C6.12857 18.8011 5.5522 18.0367 4.79953 17.5C4.75444 17.4594 4.70628 17.4226 4.65553 17.39C4.76709 17.3274 4.8947 17.303 5.02033 17.32C5.51113 17.3911 5.93017 17.7251 6.12433 18.2C6.89619 19.6 8.5932 20.1126 9.96433 19.36C10.108 19.2946 10.212 19.1602 10.2427 19C10.2795 18.5374 10.4695 18.1026 10.7803 17.77C10.9213 17.6396 10.9759 17.4354 10.92 17.2479C10.8642 17.0604 10.7081 16.9243 10.5211 16.9C8.24593 16.63 5.92273 15.8 5.92273 11.71C5.90355 10.6829 6.26449 9.68745 6.93073 8.93C7.05601 8.78586 7.08971 8.57914 7.01713 8.4C6.75033 7.62353 6.75373 6.77413 7.02673 6C7.91361 6.16376 8.74603 6.55946 9.44593 7.15C9.56307 7.23612 9.71152 7.26189 9.84913 7.22C10.7067 6.97768 11.591 6.85329 12.4795 6.85C13.3714 6.85078 14.2592 6.97521 15.1195 7.22C15.2542 7.25871 15.3984 7.23306 15.5131 7.15C16.2141 6.56132 17.0461 6.16584 17.9323 6C18.1937 6.76998 18.1937 7.61002 17.9323 8.38C17.8598 8.55914 17.8935 8.76586 18.0187 8.91C18.6781 9.65988 19.0385 10.6432 19.0267 11.66C19.0267 15.75 16.6939 16.57 14.4091 16.84C14.2176 16.8608 14.0565 16.9988 14 17.1906C13.9435 17.3825 14.0025 17.5909 14.1499 17.72C14.5803 18.1827 14.7943 18.8187 14.7355 19.46V22.64C14.7259 22.9566 14.8527 23.261 15.0811 23.47C15.3725 23.6972 15.7498 23.7677 16.0987 23.66C21.4482 21.7958 24.715 16.1707 23.817 10.3696C22.919 4.56859 18.1204 0.298184 12.4795 0.279999Z" fill="black"/>
</svg>
