<svg width="40" height="40" viewBox="0 0 40 40" fill="none" xmlns="http://www.w3.org/2000/svg">
<path fill-rule="evenodd" clip-rule="evenodd" d="M35.6272 6.83571C37.3493 7.29669 38.7027 8.65 39.1636 10.3721C39.9966 13.4903 40 20 40 20C40 20 40 26.5098 39.1636 29.628C38.7027 31.3501 37.3493 32.7034 35.6272 33.1643C32.5091 34.0007 19.9999 34.0007 19.9999 34.0007C19.9999 34.0007 7.49094 34.0007 4.37273 33.1643C2.65065 32.7034 1.29733 31.3501 0.836351 29.628C0 26.5098 0 20 0 20C0 20 0 13.4903 0.836351 10.3721C1.29733 8.65 2.65065 7.29669 4.37273 6.83571C7.49094 5.99936 19.9999 5.99936 19.9999 5.99936C19.9999 5.99936 32.5091 5.99936 35.6272 6.83571ZM26.388 20.0006L15.9962 25.9998V14.0012L26.388 20.0006Z" fill="#212121"/>
</svg>
