<?xml version="1.0" encoding="UTF-8"?>
<svg width="40px" height="40px" viewBox="0 0 40 40" version="1.1" xmlns="http://www.w3.org/2000/svg" xmlns:xlink="http://www.w3.org/1999/xlink">
    <!-- Generator: Sketch 48.1 (47250) - http://www.bohemiancoding.com/sketch -->
    <title>01-dribbble-2x</title>
    <desc>Created with Sketch.</desc>
    <defs></defs>
    <g id="Page-1" stroke="none" stroke-width="1" fill="none" fill-rule="evenodd">
        <g id="01-dribbble">
            <path d="M20,0.107238606 C9.03176891,0.107238606 0.107238606,9.03110718 0.107238606,20 C0.107238606,30.9688928 9.03176891,39.8927614 20,39.8927614 C30.9682311,39.8927614 39.8927614,30.9688928 39.8927614,20 C39.8927614,9.03110718 30.9682311,0.107238606 20,0.107238606 Z M33.989354,33.9884664 C27.3275576,40.6314037 16.9081974,41.6398254 9.09914584,36.3974268 C1.29009425,31.1550282 -1.73560666,21.1206231 1.87122355,12.4268156 C5.47805376,3.73300816 14.7137344,-1.20095662 23.9338081,0.640351902 C33.1538818,2.48166043 39.7926581,10.5858572 39.7927978,20 C39.7892014,25.2493027 37.7013625,30.281774 33.989354,33.9884664 Z M37.0896147,19.8609773 C37.0569771,15.9741832 35.6946899,12.2160494 33.2299081,9.21322694 L33.1479935,9.11313058 L33.0716324,9.21739763 C32.7217597,9.69146511 29.8880686,13.3269093 23.6306233,15.8835372 L23.5320481,15.9238538 L23.5778647,16.0211697 C23.9735541,16.8288917 24.3511945,17.650516 24.7038439,18.4777012 C24.8287984,18.7710391 24.9495878,19.0629868 25.0689888,19.3535443 L25.0981449,19.4244459 L25.174506,19.4147143 C26.4689096,19.2567251 27.7718868,19.1796498 29.0758641,19.1839366 C31.7269544,19.1891036 34.3714385,19.4488753 36.9729905,19.9596834 L37.0951683,19.9860977 L37.0896147,19.8609773 Z M36.8896875,19.8401239 C35.9483634,19.6482725 30.569765,18.6347969 25.1578454,19.314618 C25.0384444,19.0240605 24.917655,18.7321128 24.7913121,18.4373846 C24.4511581,17.6393942 24.0874016,16.8469646 23.7083728,16.0739983 C23.694489,16.0434133 23.6806051,16.0142185 23.6653329,15.9836335 L23.7583546,15.9447072 C29.69786,13.496517 32.5371046,10.0876799 33.0896814,9.36754217 C33.1165234,9.33417671 33.1373492,9.30637217 33.1521586,9.28412853 C33.1743728,9.31054285 33.1951985,9.33695717 33.2160243,9.36476171 C35.6052401,12.3087975 36.933702,15.9732856 36.9868743,19.7664418 C36.9868743,19.7998073 36.9868743,19.834563 36.9868743,19.8679284 L36.8896875,19.8401239 Z M29.7297928,21.6182245 C28.5400283,21.6168465 27.3520232,21.709819 26.176919,21.8962699 L26.0561296,21.9157331 L26.0991695,22.0297318 C27.5410821,25.9596425 28.6437958,30.0061241 29.3951924,34.1247086 L29.4201833,34.2790239 L29.549303,34.1914395 C33.4671024,31.549821 36.1189637,27.4029558 36.8758037,22.734577 L36.8896875,22.6497731 L36.8063845,22.6233588 C34.5071035,21.9542294 32.1242057,21.6171753 29.7297928,21.6223952 L29.7297928,21.6182245 Z M29.5909545,34.0440754 L29.4993212,34.1080259 C29.4993212,34.0760507 29.4882141,34.0399048 29.4812722,33.9995882 C28.7336377,29.9458506 27.6468689,25.9622511 26.2324543,22.0909017 L26.1977448,21.9949761 L26.2990968,21.9796836 C31.5832851,21.1594495 36.2052143,22.5357745 36.7827819,22.7206747 C36.0343305,27.3256902 33.4302605,31.4209363 29.5798474,34.0482461 L29.5909545,34.0440754 Z M22.2700073,13.5020779 L22.3116588,13.5785404 L22.3935735,13.5479554 C28.4580334,11.2749339 31.0320967,7.82160949 31.3458714,7.37395632 L31.3972416,7.30027428 L31.3305992,7.24188474 C27.1504567,3.53305117 21.4248938,2.10209542 15.9945131,3.40902827 L15.845956,3.44517418 L15.9375893,3.56751417 C18.2610144,6.73823185 20.3762746,10.0567411 22.2700073,13.5020779 Z M16.1250211,3.48271031 C21.4919745,2.22627661 27.1340901,3.65578278 31.2584033,7.31695701 C30.9529589,7.75209813 28.3941677,11.1901301 22.3533103,13.4548102 C20.4761792,10.0373551 18.3818926,6.74408619 16.0833696,3.59531872 L16.0181156,3.5077344 L16.1250211,3.48271031 Z M23.1058143,22.7456988 L23.0711047,22.655334 L22.9794714,22.6873092 L22.8670123,22.7248454 C13.2496785,26.0766832 9.79260317,32.7483837 9.48021684,33.386498 L9.44411887,33.46018 L9.5093729,33.5102282 C14.4009012,37.3221995 20.9703774,38.182978 26.6767371,35.7596158 L26.7503215,35.7290308 L26.7364376,35.6497879 C25.9370796,31.2430001 24.7214099,26.9222242 23.1058143,22.7456988 Z M20,37.0177715 C16.2210428,37.0218321 12.5494752,35.759156 9.57046178,33.4309852 C9.87590619,32.805383 13.3190977,26.1600968 22.8989451,22.8193808 L23.0114042,22.7818447 C24.6248221,26.952455 25.8386388,31.2672026 26.636474,35.6678609 C24.5377182,36.5608917 22.2803862,37.0200507 20,37.0177715 Z M21.2190009,20.2780454 C21.4397539,20.2057536 21.6605069,20.1390227 21.885425,20.0764625 L21.9964957,20.0444873 L21.9492907,19.93883 C21.5216685,18.9656709 21.05656,18.0036337 20.5692373,17.0499378 L20.531751,16.9762558 L20.4512247,16.9998896 C12.9539528,19.2423262 5.64966626,19.418885 3.55876044,19.4174948 C3.2810837,19.4174948 3.10337059,19.4174948 3.01867919,19.4174948 L2.92288071,19.4174948 L2.92288071,19.5162009 C2.92288071,19.6899793 2.91316203,19.8637577 2.91316203,20.0389264 C2.91053234,24.2622615 4.47683281,28.3355903 7.30739638,31.4665942 L7.3990297,31.569471 L7.46844889,31.4499114 C7.8419241,30.7881633 12.5027281,23.0876947 21.2190009,20.2780454 Z M7.43096253,31.3025474 L7.37681556,31.3943024 L7.306008,31.3136692 C4.53566473,28.2114807 3.00563175,24.1949468 3.0089605,20.0333655 C3.0089605,19.8943427 3.0089605,19.75532 3.0089605,19.6162973 L3.0089605,19.5148107 C3.75174577,19.5301032 11.9862494,19.6371507 20.4720505,17.0972055 C20.9427125,18.0189262 21.3939372,18.9545491 21.8076756,19.8887818 L21.8493271,19.9805368 C21.8173942,19.9902684 21.784073,19.9986098 21.7521402,20.0097316 C21.5591549,20.0639505 21.3689463,20.12234 21.1801261,20.18351 C12.7234811,22.9111358 8.08350286,30.2098288 7.43096253,31.2955962 L7.43096253,31.3025474 Z M3.65733568,16.6481622 C8.87032157,16.5888579 14.0566687,15.8937191 19.1017158,14.5781138 L19.2266703,14.5447484 L19.1628046,14.4307497 C17.2393121,11.0407539 15.1342284,7.75734502 12.856766,4.5948921 L12.8081725,4.52677096 L12.7331998,4.56291687 C7.88371004,6.84847299 4.3815902,11.2745035 3.26858825,16.5244319 L3.24359734,16.6439915 L3.66011245,16.6439915 L3.65733568,16.6481622 Z M3.38937763,16.445189 C4.51891324,11.2654905 7.9894457,6.9061514 12.7804049,4.64911096 C15.0353347,7.77872732 17.1209092,11.0272621 19.0281314,14.3807015 L19.0795016,14.4710663 L18.979538,14.4974806 C11.351758,16.5077492 4.61948557,16.5508462 3.47406903,16.5411147 L3.36716349,16.5411147 C3.37410541,16.5133101 3.38104733,16.4785544 3.38937763,16.445189 Z" id="Shape"></path>
            <path d="M33.9774135,5.9648012 C27.3102616,-0.674616769 16.8825251,-1.68250423 9.06719571,3.55711701 C1.25186629,8.79673825 -1.77626702,18.8258271 1.83346278,27.5150287 C5.44319258,36.2042303 14.686298,41.1355811 23.9137838,39.2952481 C33.1412697,37.454915 39.785383,29.3550118 39.7855228,19.9458566 C39.7820765,14.6993043 37.6925358,9.66944294 33.9774135,5.9648012 Z M15.9681063,3.36367462 C21.4028525,2.05743417 27.1330183,3.48763182 31.3165213,7.19450047 L31.3832173,7.25285908 L31.3318058,7.32650208 C31.0177789,7.77391809 28.4416462,11.225413 22.372311,13.4972303 L22.2903305,13.5277991 L22.2486455,13.4513771 C20.3533903,10.0078655 18.2364296,6.69111441 15.9111368,3.52207656 L15.8194298,3.39980138 L15.9681063,3.36367462 Z M3.23195084,16.4721298 C4.34427088,11.2228996 7.84942783,6.79687746 12.7041712,4.51139394 L12.7792042,4.47526718 L12.8278366,4.54335222 C15.1085946,7.70448264 17.2167639,10.9866186 19.1431134,14.3753884 L19.2070304,14.4893266 L19.0819754,14.5226744 C14.0316946,15.8393248 8.83975505,16.5354983 3.62101079,16.5957945 L3.20416084,16.5957945 L3.23195084,16.4721298 Z M7.36015483,31.4966927 L7.26844784,31.3938704 C4.43560873,28.2645254 2.86804908,24.1933545 2.87068089,19.9722569 C2.87068089,19.7971811 2.87068089,19.6234947 2.88040738,19.4498084 L2.88040738,19.3511546 L2.97906187,19.3511546 C3.06382136,19.3511546 3.24862484,19.3511546 3.5195773,19.3511546 C5.61216404,19.3511546 12.9251016,19.1760787 20.4256217,16.9348302 L20.5062127,16.9112089 L20.5437292,16.9848519 C21.0314436,17.9380425 21.4969261,18.905128 21.924892,19.8722136 L21.972135,19.9778149 L21.860975,20.0097731 C21.635876,20.0723002 21.4149456,20.1389958 21.1940151,20.2112493 C12.4735142,23.0319154 7.80896327,30.7283044 7.42962982,31.3771965 L7.36015483,31.4966927 Z M26.6589179,35.6971231 C20.9479708,38.1192014 14.3732132,37.2588789 9.47775256,33.4489271 L9.41244607,33.3989055 L9.44857307,33.3252625 C9.76121053,32.6874862 13.2210651,26.0193204 22.8461304,22.6692583 L22.9586799,22.6317421 L23.0503869,22.5997838 L23.0851244,22.6901007 C24.7020188,26.8644134 25.9186657,31.1829002 26.7186664,35.5873533 L26.7325614,35.6665543 L26.6589179,35.6971231 Z M36.8661837,22.6831532 C36.1087353,27.3490588 33.4547421,31.493727 29.5337931,34.133946 L29.4045696,34.221484 L29.3795586,34.0672505 C28.6275579,29.950848 27.5239578,25.9065102 26.080886,21.9786815 L26.0378115,21.8647432 L26.158698,21.8452903 C27.3347468,21.6589381 28.523707,21.5660149 29.714428,21.5673922 C32.1123624,21.5631325 34.4986115,21.9014162 36.8008772,22.571994 L36.8842471,22.5983943 L36.8661837,22.6831532 Z M29.0558051,19.134394 C27.7507795,19.1301095 26.4467548,19.2071439 25.1513106,19.3650495 L25.0748881,19.3747759 L25.0457086,19.3039119 C24.9262116,19.0135083 24.8053252,18.7217153 24.6802702,18.4285327 C24.3273372,17.5948383 23.9493933,16.7805968 23.5533858,15.9733027 L23.5075323,15.8760383 L23.6061868,15.8357431 C29.872831,13.2804697 32.7088002,9.64695154 33.0547856,9.17313522 L33.1312081,9.06892341 L33.2131886,9.16896674 C35.6805572,12.1685251 37.0453754,15.9230991 37.0801666,19.8069075 L37.0801666,19.9319617 L36.9578906,19.9055613 C34.3545677,19.3965115 31.7084284,19.1382738 29.0558051,19.134394 Z" id="Shape" fill="#212121"></path>
            <path d="M37.0958333,19.8609276 C37.0631839,15.972745 35.7004009,12.2132686 33.2347222,9.20937348 L33.1527778,9.10924136 L33.0763889,9.21354565 C32.7263889,9.68778249 29.8916667,13.3245254 23.6319444,15.8820666 L23.5333333,15.9223976 L23.5791667,16.0197483 C23.975,16.8277588 24.3527778,17.6496767 24.7055556,18.4771574 C24.8305556,18.7706001 24.9513889,19.0626521 25.0708333,19.3533134 L25.1,19.4242403 L25.1763889,19.4145052 C26.4712635,19.2564595 27.7747148,19.1793568 29.0791667,19.1836451 C31.7312216,19.1888139 34.376668,19.4486785 36.9791667,19.959669 L37.1013889,19.9860928 L37.0958333,19.8609276 Z M25.2236111,19.2058967 C25.1138889,18.937487 25.0013889,18.6690773 24.8861111,18.3978861 C24.5458333,17.6010013 24.1833333,16.806898 23.8027778,16.0336555 C29.7083333,13.598498 32.5638889,10.2134761 33.1583333,9.44301509 C35.5193698,12.3614873 36.8344284,15.9886752 36.8930556,19.7441068 C34.316425,19.247487 31.6989211,18.994191 29.075,18.987553 C27.78788,18.9832599 26.5016963,19.0575698 25.2236111,19.2100688 L25.2236111,19.2058967 Z M31.3347222,7.23315486 C27.152289,3.52447303 21.424731,2.09458576 15.9930556,3.40310131 L15.8444444,3.43926013 L15.9361111,3.56164384 C18.2603816,6.73349422 20.3764115,10.0531889 22.2708333,13.4997566 L22.3125,13.5762464 L22.3944444,13.5456505 C28.4611111,11.271817 31.0361111,7.81725888 31.35,7.3694458 L31.4013889,7.29573743 L31.3347222,7.23315486 Z M22.4055556,13.3245254 C20.5416934,9.94181387 18.4652975,6.68096542 16.1888889,3.56164384 C21.4849228,2.33452712 27.047082,3.73518588 31.1333333,7.32494263 C30.6569444,7.97719213 28.1013889,11.1702941 22.4055556,13.3245254 Z M19.1666667,14.424588 C17.2424742,11.0333811 15.1366245,7.74879929 12.8583333,4.58521661 L12.8097222,4.51707114 L12.7347222,4.55322996 C7.88085128,6.83944007 4.37561731,11.2689721 3.2625,16.5231903 L3.2375,16.6427926 L3.65416667,16.6427926 C8.867948,16.5846044 14.0552332,15.8906205 19.1013889,14.5761769 L19.2263889,14.5427995 L19.1666667,14.424588 Z M3.48611111,16.4453098 C4.60776808,11.3327924 8.02330101,7.02488995 12.7416667,4.7715736 C14.9707259,7.873136 17.0342611,11.0906732 18.9236111,14.4106808 C13.9315165,15.7031009 8.80173934,16.3867296 3.64583333,16.4467005 L3.48611111,16.4453098 Z M21.9444444,19.9318545 C21.5166667,18.9583478 21.0513889,17.9959669 20.5638889,17.0419303 L20.5263889,16.968222 L20.4458333,16.9918643 C12.9458333,19.2351019 5.63888889,19.4117238 3.54722222,19.4103331 C3.26944444,19.4103331 3.09166667,19.4103331 3.00694444,19.4103331 L2.91666667,19.4103331 L2.91666667,19.5090745 C2.91666667,19.682915 2.90694444,19.8567554 2.90694444,20.0319866 C2.9043138,24.2568305 4.47118422,28.3316145 7.30277778,31.4637369 L7.39444444,31.5666504 L7.46388889,31.4470482 C7.84305556,30.7975801 12.5,23.0943606 21.225,20.2767541 C21.4458333,20.2044364 21.6666667,20.1376817 21.8916667,20.0750991 L22.0027778,20.0431124 L21.9444444,19.9318545 Z M7.36111111,31.2203602 C4.61840647,28.1388298 3.10455545,24.1541513 3.10833333,20.0264238 C3.10833333,19.8873514 3.10833333,19.748279 3.10833333,19.6092066 L3.55277778,19.6092066 C5.65,19.6092066 12.9277778,19.4353661 20.4277778,17.204645 C20.8819444,18.0974897 21.3180556,19.0014603 21.7194444,19.9054308 C21.5319444,19.9582783 21.3430556,20.0166887 21.1638889,20.0764898 C12.7180556,22.8106529 8.07361111,30.0354635 7.36111111,31.2203602 Z M26.7444444,35.6553786 C25.9447955,31.2470165 24.7286835,26.9246971 23.1125,22.7466796 L23.0777778,22.6562826 L22.9861111,22.6882692 L22.8736111,22.7258188 C13.2527778,26.078854 9.79444444,32.7529379 9.48194444,33.3912802 L9.44583333,33.4649885 L9.51111111,33.5150546 C14.4044193,37.3283877 20.9762861,38.1894737 26.6847222,35.7652458 L26.7583333,35.7346499 L26.7444444,35.6553786 Z M22.9347222,22.9205201 L22.9541667,22.9135665 C24.5392079,27.0248176 25.7356514,31.2758713 26.5277778,35.6108755 C20.9289391,37.9597443 14.5017754,37.1181178 9.69444444,33.4065781 C10.1736111,32.4650581 13.6736111,26.1414366 22.9347222,22.9205201 Z M36.8125,22.6326403 C34.5112467,21.9614674 32.1260467,21.6228835 29.7291667,21.6271469 C28.5389692,21.6257684 27.3505318,21.7187741 26.175,21.9052917 L26.0541667,21.9247618 L26.0972222,22.0388012 C27.5396595,25.9701159 28.6427744,30.0180431 29.3944444,34.1380989 L29.4194444,34.2924692 L29.5486111,34.2048536 C33.4678361,31.5622914 36.1206624,27.4139448 36.8777778,22.7438982 L36.8916667,22.659064 L36.8125,22.6326403 Z M29.5694444,33.9447883 C28.8205366,29.9086911 27.7371611,25.9420754 26.3305556,22.0860858 C27.4566087,21.9139128 28.5942313,21.8288271 29.7333333,21.8315833 C32.0793881,21.8307234 34.4140359,22.1583992 36.6694444,22.80509 C35.9082435,27.3283483 33.3459805,31.3484662 29.5694444,33.9447883 Z M37.0958333,19.8609276 C37.0631839,15.972745 35.7004009,12.2132686 33.2347222,9.20937348 L33.1527778,9.10924136 L33.0763889,9.21354565 C32.7263889,9.68778249 29.8916667,13.3245254 23.6319444,15.8820666 L23.5333333,15.9223976 L23.5791667,16.0197483 C23.975,16.8277588 24.3527778,17.6496767 24.7055556,18.4771574 C24.8305556,18.7706001 24.9513889,19.0626521 25.0708333,19.3533134 L25.1,19.4242403 L25.1763889,19.4145052 C26.4712635,19.2564595 27.7747148,19.1793568 29.0791667,19.1836451 C31.7312216,19.1888139 34.376668,19.4486785 36.9791667,19.959669 L37.1013889,19.9860928 L37.0958333,19.8609276 Z M25.2236111,19.2058967 C25.1138889,18.937487 25.0013889,18.6690773 24.8861111,18.3978861 C24.5458333,17.6010013 24.1833333,16.806898 23.8027778,16.0336555 C29.7083333,13.598498 32.5638889,10.2134761 33.1583333,9.44301509 C35.5193698,12.3614873 36.8344284,15.9886752 36.8930556,19.7441068 C34.316425,19.247487 31.6989211,18.994191 29.075,18.987553 C27.78788,18.9832599 26.5016963,19.0575698 25.2236111,19.2100688 L25.2236111,19.2058967 Z M29.7333333,21.6188026 C28.5431358,21.6174241 27.3546984,21.7104298 26.1791667,21.8969474 L26.0583333,21.9164175 L26.1013889,22.0304569 C27.5438262,25.9617715 28.6469411,30.0096987 29.3986111,34.1297545 L29.4236111,34.2841249 L29.5527778,34.1965093 C33.4720028,31.5539471 36.1248291,27.4056004 36.8819444,22.7355539 L36.8958333,22.6507197 L36.8125,22.6242959 C34.5123824,21.9549275 32.1286175,21.617753 29.7333333,21.6229748 L29.7333333,21.6188026 Z M29.5694444,33.9406161 C28.8203117,29.9059323 27.7369386,25.9407211 26.3305556,22.0860858 C27.4566087,21.9139128 28.5942313,21.8288271 29.7333333,21.8315833 C32.0793881,21.8307234 34.4140359,22.1583992 36.6694444,22.80509 C35.9082435,27.3283483 33.3459805,31.3484662 29.5694444,33.9447883 L29.5694444,33.9406161 Z M20,0 C8.97222222,0 0,8.9715597 0,20 C0.0206734501,31.0474244 8.96713434,39.9938853 20,40 C31.0291667,40 40,31.0284403 40,20 C40,8.9715597 31.0291667,0 20,0 Z M20,39.7997358 C10.5479192,39.8043337 2.40926342,33.1216542 0.562458498,23.8395006 C-1.28434643,14.5573469 3.67521712,5.26171594 12.407378,1.63875664 C21.1395389,-1.98420265 31.2115275,1.07486182 36.462296,8.94471654 C41.7130646,16.8145713 40.6797551,27.3026842 33.9944444,33.9934636 C30.2854216,37.7139549 25.2499896,39.8031474 20,39.7997358 Z M22.2708333,13.4997566 L22.3125,13.5762464 L22.3944444,13.5456505 C28.4611111,11.271817 31.0361111,7.81725888 31.35,7.3694458 L31.4013889,7.29573743 L31.3347222,7.23732703 C27.1530586,3.52716852 21.4254123,2.09570157 15.9930556,3.40310131 L15.8444444,3.43926013 L15.9361111,3.56164384 C18.2603816,6.73349422 20.3764115,10.0531889 22.2708333,13.4997566 Z M20,3.12912871 C24.0976536,3.12575378 28.0559535,4.61850524 31.1333333,7.32772408 C30.6569444,7.97719213 28.1013889,11.1702941 22.4055556,13.3273069 C20.5416934,9.94459532 18.4652975,6.68374686 16.1888889,3.56442528 C17.4386319,3.27489773 18.7172441,3.1288575 20,3.12912871 Z M23.1069444,22.7466796 L23.0722222,22.6562826 L22.9805556,22.6882692 L22.8680556,22.7258188 C13.2472222,26.078854 9.78888889,32.7529379 9.47638889,33.3912802 L9.44027778,33.4649885 L9.50555556,33.5150546 C14.3988637,37.3283877 20.9707305,38.1894737 26.6791667,35.7652458 L26.7527778,35.7346499 L26.7388889,35.6553786 C25.93924,31.2470165 24.7231279,26.9246971 23.1069444,22.7466796 Z M22.9347222,22.9205201 L22.9541667,22.9135665 C24.5392079,27.0248176 25.7356514,31.2758713 26.5277778,35.6108755 C20.9289391,37.9597443 14.5017754,37.1181178 9.69444444,33.4065781 C10.1736111,32.4650581 13.6736111,26.1414366 22.9347222,22.9205201 Z M21.2194444,20.2781448 C21.4402778,20.2058271 21.6611111,20.1390724 21.8861111,20.0764898 L21.9972222,20.0445032 L21.95,19.9388081 C21.5222222,18.9653014 21.0569444,18.0029205 20.5694444,17.0488839 L20.5319444,16.9751756 L20.4513889,16.9988179 C12.9513889,19.2420555 5.64444444,19.4186774 3.55277778,19.4172867 C3.275,19.4172867 3.09722222,19.4172867 3.0125,19.4172867 L2.91666667,19.4172867 L2.91666667,19.5160281 C2.91666667,19.6898686 2.90694444,19.8637091 2.90694444,20.0389403 C2.9043138,24.2637842 4.47118422,28.3385681 7.30277778,31.4706905 L7.39444444,31.5736041 L7.46388889,31.4540018 C7.8375,30.7920172 12.5,23.0887977 21.2194444,20.2781448 Z M7.36111111,31.2203602 C4.61840647,28.1388298 3.10455545,24.1541513 3.10833333,20.0264238 C3.10833333,19.8873514 3.10833333,19.748279 3.10833333,19.6092066 L3.55277778,19.6092066 C5.65,19.6092066 12.9277778,19.4353661 20.4277778,17.204645 C20.8819444,18.0974897 21.3180556,19.0014603 21.7194444,19.9054308 C21.5319444,19.9582783 21.3430556,20.0166887 21.1638889,20.0764898 C12.7180556,22.8106529 8.07361111,30.0354635 7.36111111,31.2203602 Z M3.65138889,16.6469647 C8.86627169,16.5876394 14.054506,15.8922521 19.1013889,14.5761769 L19.2263889,14.5427995 L19.1625,14.4287602 C17.2383075,11.0375533 15.1324578,7.75297146 12.8541667,4.58938878 L12.8055556,4.52124331 L12.7305556,4.55740213 C7.87930115,6.84377474 4.37590695,11.2713864 3.2625,16.5231903 L3.2375,16.6427926 L3.65416667,16.6427926 L3.65138889,16.6469647 Z M12.7416667,4.7715736 C14.9707259,7.873136 17.0342611,11.0906732 18.9236111,14.4106808 C13.9315165,15.7031009 8.80173934,16.3867296 3.64583333,16.4467005 L3.48611111,16.4467005 C4.60738066,11.333662 8.02296734,7.02517852 12.7416667,4.7715736 Z" id="Shape"></path>
        </g>
    </g>
</svg>