<?xml version="1.0" encoding="UTF-8"?>
<svg width="40px" height="40px" viewBox="0 0 40 40" version="1.1" xmlns="http://www.w3.org/2000/svg" xmlns:xlink="http://www.w3.org/1999/xlink">
    <!-- Generator: Sketch 48.1 (47250) - http://www.bohemiancoding.com/sketch -->
    <title>01-instagram-2x</title>
    <desc>Created with Sketch.</desc>
    <defs>
        <linearGradient x1="50%" y1="99.7089409%" x2="50%" y2="0.774273765%" id="linearGradient-1">
            <stop stop-color="#E09B3D" offset="0%"></stop>
            <stop stop-color="#C74C4D" offset="30%"></stop>
            <stop stop-color="#C21975" offset="60%"></stop>
            <stop stop-color="#7024C4" offset="100%"></stop>
        </linearGradient>
        <linearGradient x1="50%" y1="146.094177%" x2="50%" y2="-45.1600568%" id="linearGradient-2">
            <stop stop-color="#E09B3D" offset="0%"></stop>
            <stop stop-color="#C74C4D" offset="30%"></stop>
            <stop stop-color="#C21975" offset="60%"></stop>
            <stop stop-color="#7024C4" offset="100%"></stop>
        </linearGradient>
        <linearGradient x1="29170%" y1="2602%" x2="29170%" y2="37613%" id="linearGradient-3">
            <stop stop-color="#E09B3D" offset="0%"></stop>
            <stop stop-color="#C74C4D" offset="30%"></stop>
            <stop stop-color="#C21975" offset="60%"></stop>
            <stop stop-color="#7024C4" offset="100%"></stop>
        </linearGradient>
    </defs>
    <g id="Page-1" stroke="none" stroke-width="1" fill="none" fill-rule="evenodd">
        <g id="01-instagram" fill-rule="nonzero">
            <path d="M28.0745763,0 L11.9163842,0 C5.33897574,0.00498146994 0.00747669272,5.33445833 0,11.9118644 L0,28.0700565 C0.00498146994,34.6474649 5.33445833,39.978964 11.9118644,39.9864407 L28.0700565,39.9864407 C34.6474649,39.9814592 39.978964,34.6519823 39.9864407,28.0745763 L39.9864407,11.9163842 C39.9814592,5.33897574 34.6519823,0.00747669272 28.0745763,0 Z M35.9638418,28.0745763 C35.9638418,32.4316973 32.4316973,35.9638418 28.0745763,35.9638418 L11.9163842,35.9638418 C7.55926314,35.9638418 4.02711864,32.4316973 4.02711864,28.0745763 L4.02711864,11.9163842 C4.02711864,7.55926314 7.55926314,4.02711864 11.9163842,4.02711864 L28.0745763,4.02711864 C32.4316973,4.02711864 35.9638418,7.55926314 35.9638418,11.9163842 L35.9638418,28.0745763 Z" id="Shape" fill="url(#linearGradient-1)"></path>
            <path d="M19.9932203,9.65084746 C14.2812855,9.65084746 9.65084746,14.2812855 9.65084746,19.9932203 C9.65084746,25.7051552 14.2812855,30.3355932 19.9932203,30.3355932 C25.7051552,30.3355932 30.3355932,25.7051552 30.3355932,19.9932203 C30.3293657,14.283867 25.7025737,9.65707494 19.9932203,9.65084746 Z M19.9932203,26.3129944 C16.5029055,26.3129944 13.6734463,23.4835351 13.6734463,19.9932203 C13.6734463,16.5029055 16.5029055,13.6734463 19.9932203,13.6734463 C23.4835351,13.6734463 26.3129944,16.5029055 26.3129944,19.9932203 C26.3129944,23.4835351 23.4835351,26.3129944 19.9932203,26.3129944 Z" id="Shape" fill="url(#linearGradient-2)"></path>
            <circle id="Oval" fill="url(#linearGradient-3)" cx="30.3559322" cy="9.72881356" r="2.4779661"></circle>
            <path d="M28.0745763,0 L11.9163842,0 C5.33897574,0.00498146994 0.00747669272,5.33445833 0,11.9118644 L0,28.0700565 C0.00498146994,34.6474649 5.33445833,39.978964 11.9118644,39.9864407 L28.0700565,39.9864407 C34.6474649,39.9814592 39.978964,34.6519823 39.9864407,28.0745763 L39.9864407,11.9163842 C39.9814592,5.33897574 34.6519823,0.00747669272 28.0745763,0 Z M35.9638418,28.0745763 C35.9638418,32.4316973 32.4316973,35.9638418 28.0745763,35.9638418 L11.9163842,35.9638418 C7.55926314,35.9638418 4.02711864,32.4316973 4.02711864,28.0745763 L4.02711864,11.9163842 C4.02711864,7.55926314 7.55926314,4.02711864 11.9163842,4.02711864 L28.0745763,4.02711864 C32.4316973,4.02711864 35.9638418,7.55926314 35.9638418,11.9163842 L35.9638418,28.0745763 Z" id="Shape" fill="#212121"></path>
            <path d="M19.9932203,9.65084746 C14.2812855,9.65084746 9.65084746,14.2812855 9.65084746,19.9932203 C9.65084746,25.7051552 14.2812855,30.3355932 19.9932203,30.3355932 C25.7051552,30.3355932 30.3355932,25.7051552 30.3355932,19.9932203 C30.3293657,14.283867 25.7025737,9.65707494 19.9932203,9.65084746 Z M19.9932203,26.3129944 C16.5029055,26.3129944 13.6734463,23.4835351 13.6734463,19.9932203 C13.6734463,16.5029055 16.5029055,13.6734463 19.9932203,13.6734463 C23.4835351,13.6734463 26.3129944,16.5029055 26.3129944,19.9932203 C26.3129944,23.4835351 23.4835351,26.3129944 19.9932203,26.3129944 Z" id="Shape" fill="#212121"></path>
            <circle id="Oval" fill="#212121" cx="30.3559322" cy="9.72881356" r="2.4779661"></circle>
        </g>
    </g>
</svg>