<?xml version="1.0" encoding="UTF-8"?>
<svg width="40px" height="41px" viewBox="0 0 40 41" version="1.1" xmlns="http://www.w3.org/2000/svg" xmlns:xlink="http://www.w3.org/1999/xlink">
    <!-- Generator: Sketch 48.1 (47250) - http://www.bohemiancoding.com/sketch -->
    <title>01-linkedin-2x</title>
    <desc>Created with Sketch.</desc>
    <defs></defs>
    <g id="Page-1" stroke="none" stroke-width="1" fill="none" fill-rule="evenodd">
        <g id="01-linkedin" fill="#212121" fill-rule="nonzero">
            <path d="M9.74237288,38.8689266 C9.74237288,39.6177872 9.13530136,40.2248588 8.38644068,40.2248588 L2.60225989,40.2248588 C1.85339921,40.2248588 1.24632768,39.6177872 1.24632768,38.8689266 L1.24632768,14.6282486 C1.24632768,13.8793879 1.85339921,13.2723164 2.60225989,13.2723164 L8.38418079,13.2723164 C9.13304147,13.2723164 9.74011299,13.8793879 9.74011299,14.6282486 L9.74237288,38.8689266 Z M5.49378531,10.9853107 C2.46027552,10.9853107 0.0011299435,8.52616516 0.0011299435,5.49265537 C0.0011299435,2.45914557 2.46027552,2.92245826e-14 5.49378531,2.84217094e-14 C8.52729511,2.80202729e-14 10.9864407,2.45914557 10.9864407,5.49265537 C10.9864407,6.94939814 10.4077519,8.34647653 9.37767917,9.37654922 C8.34760647,10.4066219 6.95052809,10.9853107 5.49378531,10.9853107 Z M39.9570621,38.9751412 C39.9570624,39.6649001 39.3982332,40.2242351 38.7084746,40.2248588 L32.5050847,40.2248588 C31.8153259,40.224859 31.2559909,39.6660298 31.2553672,38.9762712 L31.2553672,27.6067797 C31.2553672,25.9118644 31.7536723,20.1751412 26.8237288,20.1751412 C23,20.1751412 22.2248588,24.100565 22.0689266,25.8621469 L22.0689266,38.9751412 C22.0692264,39.306483 21.9378116,39.6243565 21.7036235,39.8587565 C21.4694354,40.0931566 21.1516809,40.2248589 20.820339,40.2248588 L14.819209,40.2248588 C14.488063,40.2248588 14.1704799,40.0933115 13.9363243,39.8591559 C13.7021687,39.6250003 13.5706215,39.3074172 13.5706215,38.9762712 L13.5706215,14.5186441 C13.5706215,14.1874981 13.7021687,13.8699149 13.9363243,13.6357593 C14.1704799,13.4016037 14.488063,13.2700565 14.819209,13.2700565 L20.820339,13.2700565 C21.151485,13.2700565 21.4690681,13.4016037 21.7032237,13.6357593 C21.9373793,13.8699149 22.0689266,14.1874981 22.0689266,14.5186441 L22.0689266,16.6338983 C23.4870056,14.5062147 25.5932203,12.8632768 30.080226,12.8632768 C40.0146893,12.8632768 39.9581921,22.1446328 39.9581921,27.2440678 L39.9581921,38.9751412 L39.9570621,38.9751412 Z" id="Shape"></path>
        </g>
    </g>
</svg>