<svg width="40" height="40" viewBox="0 0 40 40" fill="none" xmlns="http://www.w3.org/2000/svg">
<g clip-path="url(#clip0_748_271)">
<path d="M9.74237 38.8689C9.74237 39.6178 9.1353 40.2249 8.38644 40.2249H2.60226C1.8534 40.2249 1.24633 39.6178 1.24633 38.8689V14.6282C1.24633 13.8794 1.8534 13.2723 2.60226 13.2723H8.38418C9.13304 13.2723 9.74011 13.8794 9.74011 14.6282L9.74237 38.8689ZM5.49378 10.9853C2.46027 10.9853 0.00112915 8.52617 0.00112915 5.49266C0.00112915 2.45915 2.46027 0 5.49378 0C8.52729 0 10.9864 2.45915 10.9864 5.49266C10.9864 6.9494 10.4078 8.34648 9.37768 9.37655C8.34761 10.4066 6.95053 10.9853 5.49378 10.9853ZM39.9571 38.9751C39.9571 39.6649 39.3982 40.2242 38.7085 40.2249H32.5051C31.8153 40.2249 31.256 39.666 31.2554 38.9763V27.6068C31.2554 25.9119 31.7537 20.1751 26.8237 20.1751C23 20.1751 22.2249 24.1006 22.0689 25.8621V38.9751C22.0692 39.3065 21.9378 39.6244 21.7036 39.8588C21.4694 40.0932 21.1517 40.2249 20.8203 40.2249H14.8192C14.4881 40.2249 14.1705 40.0933 13.9363 39.8592C13.7022 39.625 13.5706 39.3074 13.5706 38.9763V14.5186C13.5706 14.1875 13.7022 13.8699 13.9363 13.6358C14.1705 13.4016 14.4881 13.2701 14.8192 13.2701H20.8203C21.1515 13.2701 21.4691 13.4016 21.7032 13.6358C21.9374 13.8699 22.0689 14.1875 22.0689 14.5186V16.6339C23.487 14.5062 25.5932 12.8633 30.0802 12.8633C40.0147 12.8633 39.9582 22.1446 39.9582 27.2441V38.9751H39.9571Z" fill="#212121"/>
</g>
<defs>
<clipPath id="clip0_748_271">
<rect width="40" height="40" fill="white"/>
</clipPath>
</defs>
</svg>
