<?xml version="1.0" encoding="UTF-8"?>
<svg width="40px" height="34px" viewBox="0 0 40 34" version="1.1" xmlns="http://www.w3.org/2000/svg" xmlns:xlink="http://www.w3.org/1999/xlink">
    <!-- Generator: Sketch 48.1 (47250) - http://www.bohemiancoding.com/sketch -->
    <title>01-twitter-2x</title>
    <desc>Created with Sketch.</desc>
    <defs></defs>
    <g id="Page-1" stroke="none" stroke-width="1" fill="none" fill-rule="evenodd">
        <g id="01-twitter" fill="#212121" fill-rule="nonzero">
            <path d="M39.2785894,3.9627204 C38.391372,4.35562513 37.469957,4.66624856 36.5259446,4.8906801 C37.5718252,3.89797708 38.3507873,2.65780562 38.790932,1.28463476 C38.8484075,1.10660322 38.789572,0.911587472 38.6432256,0.79504823 C38.4968792,0.678508989 38.2936413,0.664829253 38.1329975,0.76070529 C36.8208959,1.53726449 35.4038467,2.12091499 33.9254408,2.49370277 C33.8394147,2.51507165 33.7511089,2.52589842 33.6624685,2.52594458 C33.3909442,2.5249292 33.1290973,2.42499037 32.9259446,2.24483627 C31.3533681,0.859314406 29.3291182,0.0954735651 27.2332494,0.0967254408 C26.3084904,0.0990580197 25.3893598,0.240697879 24.506801,0.516876574 C21.7078069,1.39157815 19.5743413,3.6727334 18.888665,6.52392947 C18.6378395,7.56010326 18.5696474,8.6320831 18.6871537,9.69168766 C18.6980501,9.77977331 18.669681,9.86819658 18.6095718,9.93350126 C18.5496783,10.0016211 18.4635007,10.0408594 18.372796,10.0413098 L18.3415617,10.0413098 C12.2629213,9.49230804 6.66605601,6.50394474 2.82821159,1.7581864 C2.73473363,1.64401679 2.59125879,1.58287839 2.44416363,1.59453347 C2.29706847,1.60618855 2.16501206,1.68915867 2.0906801,1.81662469 C0.117316228,5.21480265 0.694311227,9.51780917 3.49319899,12.2760705 C2.80737251,12.113539 2.14700842,11.857936 1.53047859,11.5163728 C1.3920307,11.4392585 1.22320041,11.4407703 1.08615559,11.5203513 C0.949110775,11.5999324 0.864115954,11.7458154 0.862468514,11.9042821 C0.821139382,15.3110212 2.79101218,18.4222196 5.88816121,19.8418136 L5.70478589,19.8418136 C5.21817679,19.8415904 4.73269444,19.7950327 4.25491184,19.7027708 C4.09901503,19.6732646 3.93909338,19.7279662 3.83392631,19.8467699 C3.72875923,19.9655735 3.69386365,20.1309504 3.74206549,20.2821159 C4.73362246,23.3598127 7.36337847,25.6243356 10.5541562,26.1481108 C7.92529221,27.9151568 4.82799595,28.8555391 1.6604534,28.8483627 L0.664987406,28.8483627 C0.361620038,28.8459868 0.0958338573,29.0510456 0.0211586902,29.3450882 C-0.051403067,29.6416497 0.0819381251,29.9503098 0.347607053,30.1007557 C3.9520669,32.1955389 8.04665473,33.2992248 12.2156171,33.2997481 C15.8629723,33.2997481 19.2745592,32.5763224 22.3566751,31.1486146 C25.1910114,29.83293 27.7187166,27.9387813 29.77733,25.5879093 C31.7441313,23.3504406 33.2842612,20.7714914 34.3214106,17.9788413 C35.3247254,15.314853 35.8473529,12.4939608 35.8649874,9.64735516 L35.8649874,9.5163728 C35.8657648,9.07313592 36.0673094,8.65411591 36.4130982,8.3768262 C37.7367792,7.30390584 38.8915891,6.03803043 39.8387909,4.62166247 C39.9505593,4.45531576 39.9386652,4.2350634 39.8096328,4.08172052 C39.6806003,3.92837764 39.4656219,3.87901328 39.2826196,3.96070529 L39.2785894,3.9627204 Z" id="Shape"></path>
        </g>
    </g>
</svg>