<svg width="40" height="40" viewBox="0 0 40 40" fill="none" xmlns="http://www.w3.org/2000/svg">
<path d="M39.277 7.366C38.3898 7.7589 37.4684 8.06952 36.5244 8.29396C37.5703 7.30125 38.3492 6.06108 38.7894 4.68791C38.8469 4.50988 38.788 4.31486 38.6417 4.19832C38.4953 4.08179 38.2921 4.06811 38.1314 4.16398C36.8193 4.94054 35.4023 5.52419 33.9239 5.89698C33.8379 5.91835 33.7496 5.92917 33.6609 5.92922C33.3894 5.92821 33.1275 5.82827 32.9244 5.64811C31.3518 4.26259 29.3276 3.49875 27.2317 3.5C26.3069 3.50233 25.3878 3.64397 24.5052 3.92015C21.7062 4.79485 19.5728 7.07601 18.8871 9.92721C18.6363 10.9634 18.5681 12.0354 18.6856 13.095C18.6965 13.183 18.6681 13.2715 18.608 13.3368C18.5481 13.4049 18.4619 13.4441 18.3712 13.4446H18.34C12.2614 12.8956 6.6645 9.90722 2.82665 5.16146C2.73318 5.04729 2.5897 4.98615 2.44261 4.99781C2.29551 5.00946 2.16345 5.09243 2.08912 5.2199C0.115759 8.61808 0.692754 12.9211 3.49164 15.6793C2.80582 15.5168 2.14545 15.2612 1.52892 14.9196C1.39047 14.8425 1.22164 14.844 1.0846 14.9236C0.947553 15.0032 0.862559 15.1491 0.860911 15.3076C0.819582 18.7143 2.78945 21.8255 5.8866 23.2451H5.70323C5.21662 23.2449 4.73114 23.1983 4.25335 23.106C4.09746 23.0765 3.93754 23.1312 3.83237 23.25C3.7272 23.3688 3.69231 23.5342 3.74051 23.6854C4.73207 26.7631 7.36182 29.0276 10.5526 29.5514C7.92373 31.3184 4.82644 32.2588 1.6589 32.2516H0.66343C0.360063 32.2493 0.0942765 32.4543 0.0196013 32.7484C-0.0529605 33.0449 0.0803807 33.3536 0.34605 33.504C3.95051 35.5988 8.0451 36.7025 12.2141 36.703C15.8614 36.703 19.273 35.9796 22.3551 34.5519C25.1895 33.2362 27.7172 31.3421 29.7758 28.9912C31.7426 26.7537 33.2827 24.1748 34.3199 21.3821C35.3232 18.7181 35.8458 15.8972 35.8634 13.0506V12.9196C35.8642 12.4764 36.0658 12.0574 36.4115 11.7801C37.7352 10.7072 38.89 9.44131 39.8372 8.02494C39.949 7.85859 39.9371 7.63834 39.8081 7.485C39.679 7.33165 39.4641 7.28229 39.2811 7.36398L39.277 7.366Z" fill="#212121"/>
</svg>
